<mxfile host="65bd71144e">
    <diagram name="Page-1" id="p7zMxf3rJaipu5S4d5rO">
        <mxGraphModel dx="1619" dy="608" grid="1" gridSize="10" guides="1" tooltips="1" connect="1" arrows="1" fold="1" page="1" pageScale="1" pageWidth="827" pageHeight="1169" background="none" math="0" shadow="0">
            <root>
                <mxCell id="0"/>
                <mxCell id="1" parent="0"/>
                <mxCell id="2" value="Slash Command" style="edgeStyle=none;html=1;exitX=1;exitY=0.75;exitDx=0;exitDy=0;entryX=0;entryY=0.75;entryDx=0;entryDy=0;fillColor=#008a00;strokeColor=#005700;rounded=1;" edge="1" parent="1" source="yul_2bbhAxg7lX440Qxf-1" target="yul_2bbhAxg7lX440Qxf-2">
                    <mxGeometry relative="1" as="geometry"/>
                </mxCell>
                <mxCell id="4" value="Modal" style="edgeStyle=none;html=1;exitX=1;exitY=0.5;exitDx=0;exitDy=0;entryX=0;entryY=0.5;entryDx=0;entryDy=0;fillColor=#008a00;strokeColor=#005700;rounded=1;" edge="1" parent="1" source="yul_2bbhAxg7lX440Qxf-1" target="yul_2bbhAxg7lX440Qxf-2">
                    <mxGeometry relative="1" as="geometry"/>
                </mxCell>
                <mxCell id="5" value="Config Panel" style="edgeStyle=none;html=1;exitX=1;exitY=0.25;exitDx=0;exitDy=0;entryX=0;entryY=0.25;entryDx=0;entryDy=0;fillColor=#008a00;strokeColor=#005700;rounded=1;" edge="1" parent="1" source="yul_2bbhAxg7lX440Qxf-1" target="yul_2bbhAxg7lX440Qxf-2">
                    <mxGeometry relative="1" as="geometry"/>
                </mxCell>
                <mxCell id="yul_2bbhAxg7lX440Qxf-1" value="Client" style="rounded=1;whiteSpace=wrap;html=1;" parent="1" vertex="1">
                    <mxGeometry x="-160" y="200" width="120" height="60" as="geometry"/>
                </mxCell>
                <mxCell id="6" value="Failed Validation" style="edgeStyle=none;html=1;exitX=0.25;exitY=0;exitDx=0;exitDy=0;entryX=0.75;entryY=0;entryDx=0;entryDy=0;rounded=1;fillColor=#a20025;strokeColor=#6F0000;" edge="1" parent="1" source="yul_2bbhAxg7lX440Qxf-2" target="yul_2bbhAxg7lX440Qxf-1">
                    <mxGeometry relative="1" as="geometry">
                        <Array as="points">
                            <mxPoint x="270" y="180"/>
                            <mxPoint x="-70" y="180"/>
                        </Array>
                    </mxGeometry>
                </mxCell>
                <mxCell id="8" value="Modal / Message" style="edgeStyle=none;rounded=1;html=1;exitX=0.5;exitY=0;exitDx=0;exitDy=0;entryX=0.5;entryY=0;entryDx=0;entryDy=0;fillColor=#008a00;strokeColor=#005700;" edge="1" parent="1" source="yul_2bbhAxg7lX440Qxf-2" target="yul_2bbhAxg7lX440Qxf-1">
                    <mxGeometry relative="1" as="geometry">
                        <mxPoint x="-130" y="130" as="targetPoint"/>
                        <Array as="points">
                            <mxPoint x="300" y="150"/>
                            <mxPoint x="-100" y="150"/>
                        </Array>
                    </mxGeometry>
                </mxCell>
                <mxCell id="yul_2bbhAxg7lX440Qxf-2" value="Revolt API" style="rounded=1;whiteSpace=wrap;html=1;" parent="1" vertex="1">
                    <mxGeometry x="240" y="200" width="120" height="60" as="geometry"/>
                </mxCell>
                <mxCell id="yul_2bbhAxg7lX440Qxf-14" value="Message" style="edgeStyle=orthogonalEdgeStyle;rounded=1;orthogonalLoop=1;jettySize=auto;html=1;entryX=0.5;entryY=1;entryDx=0;entryDy=0;fillColor=#008a00;strokeColor=#005700;exitX=0.5;exitY=1;exitDx=0;exitDy=0;" parent="1" source="yul_2bbhAxg7lX440Qxf-5" target="yul_2bbhAxg7lX440Qxf-2" edge="1">
                    <mxGeometry relative="1" as="geometry">
                        <Array as="points">
                            <mxPoint x="540" y="310"/>
                            <mxPoint x="300" y="310"/>
                        </Array>
                    </mxGeometry>
                </mxCell>
                <mxCell id="yul_2bbhAxg7lX440Qxf-16" value="Modal" style="edgeStyle=orthogonalEdgeStyle;rounded=1;orthogonalLoop=1;jettySize=auto;html=1;exitX=0.25;exitY=1;exitDx=0;exitDy=0;entryX=0.75;entryY=1;entryDx=0;entryDy=0;fillColor=#008a00;strokeColor=#005700;" parent="1" source="yul_2bbhAxg7lX440Qxf-5" target="yul_2bbhAxg7lX440Qxf-2" edge="1">
                    <mxGeometry relative="1" as="geometry"/>
                </mxCell>
                <mxCell id="yul_2bbhAxg7lX440Qxf-17" value="Failed Validation" style="edgeStyle=orthogonalEdgeStyle;rounded=1;orthogonalLoop=1;jettySize=auto;html=1;exitX=0.75;exitY=1;exitDx=0;exitDy=0;entryX=0.25;entryY=1;entryDx=0;entryDy=0;fillColor=#a20025;strokeColor=#6F0000;" parent="1" source="yul_2bbhAxg7lX440Qxf-5" target="yul_2bbhAxg7lX440Qxf-2" edge="1">
                    <mxGeometry x="-0.0013" relative="1" as="geometry">
                        <mxPoint x="609.9999999999998" y="340" as="targetPoint"/>
                        <Array as="points">
                            <mxPoint x="570" y="340"/>
                            <mxPoint x="270" y="340"/>
                        </Array>
                        <mxPoint as="offset"/>
                    </mxGeometry>
                </mxCell>
                <mxCell id="10" value="Sync&amp;nbsp; Slash Commands" style="edgeStyle=none;rounded=1;html=1;exitX=0.25;exitY=0;exitDx=0;exitDy=0;entryX=0.75;entryY=0;entryDx=0;entryDy=0;fillColor=#008a00;strokeColor=#005700;" edge="1" parent="1" source="yul_2bbhAxg7lX440Qxf-5" target="yul_2bbhAxg7lX440Qxf-2">
                    <mxGeometry relative="1" as="geometry">
                        <Array as="points">
                            <mxPoint x="510" y="180"/>
                            <mxPoint x="330" y="180"/>
                        </Array>
                    </mxGeometry>
                </mxCell>
                <mxCell id="11" value="Autocomplete Response" style="edgeStyle=none;html=1;exitX=1;exitY=1;exitDx=0;exitDy=0;entryX=0;entryY=1;entryDx=0;entryDy=0;fillColor=#008a00;strokeColor=#005700;" edge="1" parent="1" source="yul_2bbhAxg7lX440Qxf-5" target="yul_2bbhAxg7lX440Qxf-2">
                    <mxGeometry relative="1" as="geometry">
                        <Array as="points">
                            <mxPoint x="600" y="370"/>
                            <mxPoint x="240" y="370"/>
                        </Array>
                    </mxGeometry>
                </mxCell>
                <mxCell id="yul_2bbhAxg7lX440Qxf-5" value="Bot" style="rounded=1;whiteSpace=wrap;html=1;" parent="1" vertex="1">
                    <mxGeometry x="480" y="200" width="120" height="60" as="geometry"/>
                </mxCell>
                <mxCell id="yul_2bbhAxg7lX440Qxf-6" value="Bot Gateway" style="endArrow=classic;html=1;rounded=1;exitX=1;exitY=0.25;exitDx=0;exitDy=0;entryX=0;entryY=0.25;entryDx=0;entryDy=0;fillColor=#1ba1e2;strokeColor=#006EAF;" parent="1" source="yul_2bbhAxg7lX440Qxf-2" target="yul_2bbhAxg7lX440Qxf-5" edge="1">
                    <mxGeometry width="50" height="50" relative="1" as="geometry">
                        <mxPoint x="400" y="250" as="sourcePoint"/>
                        <mxPoint x="450" y="200" as="targetPoint"/>
                    </mxGeometry>
                </mxCell>
                <mxCell id="yul_2bbhAxg7lX440Qxf-7" value="Bot Interaction URL" style="endArrow=classic;html=1;rounded=1;exitX=1;exitY=0.25;exitDx=0;exitDy=0;entryX=0;entryY=0.25;entryDx=0;entryDy=0;fillColor=#1ba1e2;strokeColor=#006EAF;" parent="1" edge="1">
                    <mxGeometry width="50" height="50" relative="1" as="geometry">
                        <mxPoint x="360" y="240" as="sourcePoint"/>
                        <mxPoint x="480" y="240" as="targetPoint"/>
                    </mxGeometry>
                </mxCell>
            </root>
        </mxGraphModel>
    </diagram>
</mxfile>